HIERARCHY
ROOT Joint1
{
	OFFSET 0.000000 0.000000 0.000000
	CHANNELS 6 Xposition Yposition Zposition Xrotation Yrotation Zrotation
	JOINT Joint2
	{
		OFFSET -0.000000 0.000000 1.456275
		CHANNELS 6 Xposition Yposition Zposition Xrotation Yrotation Zrotation
		JOINT Joint3
		{
			OFFSET -0.000000 0.000002 1.471446
			CHANNELS 6 Xposition Yposition Zposition Xrotation Yrotation Zrotation
			JOINT Joint4
			{
				OFFSET 0.625745 0.000000 0.917755
				CHANNELS 6 Xposition Yposition Zposition Xrotation Yrotation Zrotation
				JOINT Joint5
				{
					OFFSET -0.629534 0.000001 0.940221
					CHANNELS 6 Xposition Yposition Zposition Xrotation Yrotation Zrotation
					JOINT Joint6
					{
						OFFSET -0.000001 0.113772 1.960660
						CHANNELS 6 Xposition Yposition Zposition Xrotation Yrotation Zrotation
						JOINT Joint7
						{
							OFFSET -0.669733 -0.113771 0.388340
							CHANNELS 6 Xposition Yposition Zposition Xrotation Yrotation Zrotation
							End Site
							{
								OFFSET 0.005509 0.005509 0.438980
							}
						}
					}
				}
			}
		}
	}
}
MOTION
Frames: 17
Frame Time: 0.041667
0.000000 0.000000 0.000000 -0.000000 1.019410 83.677843 -0.000000 0.000000 1.456275 0.000000 43.218951 -0.000000 -0.000000 0.000002 1.471446 -0.000009 -1.133454 127.436508 0.625745 0.000000 0.917755 0.000012 103.651590 -0.000000 -0.629533 0.000001 0.940221 0.000000 1.709734 -126.000038 -0.000001 0.113772 1.960661 -88.303882 -150.296810 -0.000001 -0.669733 -0.113771 0.388340 -1.722015 2.605820 -138.155275 
0.000000 0.000000 0.000000 -0.000000 1.019410 83.581196 -0.000000 0.000000 1.456275 0.000000 43.117082 -0.000000 -0.000000 0.000002 1.471446 -0.000008 -1.133460 127.289291 0.625744 0.000000 0.917755 -0.000003 103.687818 -0.000004 -0.629533 0.000001 0.940221 0.000001 1.709735 -125.854541 -0.000001 0.113772 1.960660 -88.303875 -150.435108 -0.000005 -0.669733 -0.113771 0.388340 -1.721916 2.607597 -138.255528 
0.000000 0.000000 0.000000 -0.000000 1.019410 83.428056 -0.000000 0.000000 1.456275 -0.000000 42.955661 0.000000 -0.000000 0.000002 1.471446 -0.000009 -1.133453 127.056012 0.625745 0.000000 0.917755 -0.000006 103.745225 -0.000004 -0.629534 0.000001 0.940221 0.000002 1.709733 -125.623981 -0.000001 0.113772 1.960660 -88.303882 -150.654220 -0.000001 -0.669733 -0.113772 0.388339 -1.721752 2.610410 -138.414412 
0.000000 0.000000 0.000000 -0.000000 1.019410 83.224912 -0.000000 0.000000 1.456275 0.000000 42.741541 -0.000000 -0.000000 0.000002 1.471446 -0.000008 -1.133455 126.746577 0.625744 0.000000 0.917755 -0.000008 103.821389 -0.000008 -0.629534 0.000001 0.940221 -0.000001 1.709737 -125.318153 -0.000001 0.113771 1.960661 -88.303882 -150.944886 -0.000004 -0.669733 -0.113771 0.388340 -1.721524 2.614148 -138.625178 
0.000000 0.000000 0.000000 -0.000000 1.019410 82.978261 -0.000000 0.000000 1.456275 0.000001 42.481567 -0.000000 -0.000000 0.000002 1.471446 -0.000008 -1.133457 126.370862 0.625744 0.000000 0.917755 0.000003 103.913856 -0.000000 -0.629534 0.000001 0.940221 0.000002 1.709732 -124.946809 -0.000001 0.113772 1.960661 -88.303882 -151.297802 -0.000002 -0.669733 -0.113771 0.388339 -1.721228 2.618678 -138.881078 
0.000000 0.000000 0.000000 -0.000000 1.019410 82.694596 -0.000000 -0.000000 1.456275 0.000000 42.182576 0.000001 -0.000000 0.000002 1.471446 -0.000008 -1.133457 125.938771 0.625745 0.000000 0.917755 0.000011 104.020202 0.000014 -0.629534 0.000001 0.940221 -0.000003 1.709736 -124.519758 -0.000001 0.113772 1.960660 -88.303882 -151.703679 -0.000001 -0.669733 -0.113771 0.388340 -1.720861 2.623887 -139.175377 
0.000000 0.000000 0.000000 -0.000000 1.019410 82.380414 -0.000000 0.000000 1.456275 -0.000000 41.851421 -0.000000 -0.000000 0.000002 1.471445 -0.000009 -1.133456 125.460193 0.625745 0.000000 0.917755 0.000006 104.137982 0.000003 -0.629534 0.000001 0.940221 -0.000004 1.709735 -124.046754 -0.000001 0.113771 1.960660 -88.303882 -152.153228 -0.000001 -0.669733 -0.113771 0.388340 -1.720422 2.629654 -139.501341 
0.000000 0.000000 0.000000 -0.000000 1.019410 82.042217 -0.000000 0.000000 1.456275 0.000000 41.494939 0.000000 -0.000000 0.000002 1.471446 -0.000008 -1.133455 124.945033 0.625744 0.000000 0.917755 0.000009 104.264777 0.000007 -0.629533 0.000001 0.940221 -0.000001 1.709736 -123.537577 -0.000001 0.113771 1.960661 -88.303875 -152.637147 -0.000001 -0.669733 -0.113771 0.388340 -1.719913 2.635860 -139.852235 
0.000000 0.000000 0.000000 -0.000000 1.019410 81.686474 -0.000000 0.000000 1.456275 0.000000 41.119979 0.000000 -0.000001 0.000002 1.471445 -0.000008 -1.133456 124.403139 0.625744 0.000000 0.917755 0.000018 104.398137 -0.000000 -0.629534 0.000001 0.940221 0.000002 1.709734 -123.002022 -0.000001 0.113772 1.960660 -88.303882 -153.146160 -0.000002 -0.669733 -0.113772 0.388340 -1.719337 2.642385 -140.221325 
0.000000 0.000000 0.000000 -0.000000 1.019410 81.319706 -0.000000 0.000000 1.456275 -0.000000 40.733390 0.000000 -0.000000 0.000002 1.471446 -0.000008 -1.133455 123.844457 0.625744 0.000000 0.917755 0.000004 104.535642 -0.000007 -0.629534 0.000001 0.940221 0.000001 1.709736 -122.449828 -0.000001 0.113772 1.960661 -88.303875 -153.670951 -0.000001 -0.669733 -0.113771 0.388340 -1.718697 2.649110 -140.601862 
0.000000 0.000000 0.000000 -0.000000 1.019410 80.943431 -0.000000 -0.000000 1.456275 -0.000000 40.336782 -0.000001 -0.000000 0.000002 1.471445 -0.000008 -1.133458 123.271309 0.625745 0.000001 0.917755 0.000011 104.676720 -0.000007 -0.629533 0.000001 0.940221 -0.000004 1.709736 -121.883360 -0.000001 0.113771 1.960660 -88.303882 -154.209334 -0.000001 -0.669733 -0.113771 0.388340 -1.717999 2.655998 -140.992262 
0.000000 0.000000 0.000000 -0.000000 1.019410 80.539371 -0.000000 -0.000000 1.456275 -0.000000 39.910885 -0.000001 -0.000000 0.000002 1.471446 -0.000008 -1.133452 122.655813 0.625744 0.000000 0.917755 0.000002 104.828207 -0.000007 -0.629533 0.000001 0.940221 -0.000001 1.709735 -121.275036 -0.000001 0.113771 1.960660 -88.303882 -154.787495 -0.000001 -0.669733 -0.113771 0.388340 -1.717194 2.663400 -141.411499 
0.000000 0.000000 0.000000 -0.000000 1.019410 80.084262 -0.000000 0.000000 1.456275 0.000000 39.431177 0.000000 -0.000000 0.000002 1.471445 -0.000008 -1.133452 121.962549 0.625745 0.000000 0.917755 0.000009 104.998825 -0.000004 -0.629534 0.000001 0.940221 0.000002 1.709736 -120.589858 -0.000001 0.113772 1.960660 -88.303882 -155.438686 -0.000003 -0.669733 -0.113771 0.388340 -1.716222 2.671720 -141.883711 
0.000000 0.000000 0.000000 -0.000000 1.019410 79.554867 -0.000000 0.000000 1.456275 0.000001 38.873171 0.000000 -0.000000 0.000002 1.471446 -0.000009 -1.133457 121.156149 0.625745 0.000000 0.917755 0.000017 105.197296 -0.000007 -0.629534 0.000001 0.940221 0.000002 1.709737 -119.792844 -0.000001 0.113772 1.960661 -88.303882 -156.196181 -0.000003 -0.669733 -0.113771 0.388341 -1.715007 2.681393 -142.432995 
0.000000 0.000000 0.000000 -0.000000 1.019410 78.927918 -0.000000 0.000000 1.456275 0.000000 38.212347 -0.000002 -0.000000 0.000002 1.471446 -0.000008 -1.133458 120.201152 0.625745 0.000000 0.917755 0.000010 105.432337 -0.000000 -0.629534 0.000001 0.940221 0.000001 1.709736 -118.848953 -0.000001 0.113772 1.960661 -88.303875 -157.093244 0.000001 -0.669733 -0.113771 0.388339 -1.713446 2.692829 -143.083488 
0.000000 0.000000 0.000000 -0.000000 1.019410 78.191541 -0.000000 0.000000 1.456275 0.000001 37.436178 -0.000000 -0.000000 0.000002 1.471446 -0.000008 -1.133457 119.079471 0.625745 0.000000 0.917755 0.000013 105.708399 -0.000003 -0.629534 0.000001 0.940221 0.000002 1.709735 -117.740345 -0.000001 0.113772 1.960660 -88.303882 -158.146897 -0.000002 -0.669733 -0.113771 0.388340 -1.711448 2.706240 -143.847513 
0.000000 0.000000 0.000000 -0.000000 1.019410 77.379302 -0.000000 0.000000 1.456275 -0.000000 36.580045 0.000000 -0.000000 0.000002 1.471446 -0.000007 -1.133456 117.842224 0.625745 0.000000 0.917755 0.000013 106.012917 -0.000003 -0.629534 0.000001 0.940221 -0.000000 1.709734 -116.517508 -0.000001 0.113772 1.960660 -88.303882 -159.309081 -0.000002 -0.669733 -0.113771 0.388340 -1.709037 2.721002 -144.690290 
